<?xml version="1.0" standalone="no"?><!DOCTYPE svg PUBLIC "-//W3C//DTD SVG 1.1//EN" "http://www.w3.org/Graphics/SVG/1.1/DTD/svg11.dtd"><svg class="icon" width="200px" height="200.00px" viewBox="0 0 1024 1024" version="1.1" xmlns="http://www.w3.org/2000/svg"><path fill="#d81e06" d="M938.666667 138.666667v746.666666a53.393333 53.393333 0 0 1-53.333334 53.333334H138.666667a53.393333 53.393333 0 0 1-53.333334-53.333334V138.666667a53.393333 53.393333 0 0 1 53.333334-53.333334h746.666666a53.393333 53.393333 0 0 1 53.333334 53.333334z m-230.12 342.173333l-266.666667-175.966667A37.333333 37.333333 0 0 0 384 336.033333V688a37.333333 37.333333 0 0 0 57.9 31.16l266.666667-176a37.333333 37.333333 0 0 0 0-62.32z"  /></svg>