<?xml version="1.0" standalone="no"?><!DOCTYPE svg PUBLIC "-//W3C//DTD SVG 1.1//EN" "http://www.w3.org/Graphics/SVG/1.1/DTD/svg11.dtd"><svg class="icon" width="200px" height="200.00px" viewBox="0 0 1024 1024" version="1.1" xmlns="http://www.w3.org/2000/svg"><path fill="#bfbfbf" d="M885.333333 938.666667H138.666667a53.393333 53.393333 0 0 1-53.333334-53.333334V138.666667a53.393333 53.393333 0 0 1 53.333334-53.333334h746.666666a53.393333 53.393333 0 0 1 53.333334 53.333334v746.666666a53.393333 53.393333 0 0 1-53.333334 53.333334zM138.666667 128a10.666667 10.666667 0 0 0-10.666667 10.666667v746.666666a10.666667 10.666667 0 0 0 10.666667 10.666667h746.666666a10.666667 10.666667 0 0 0 10.666667-10.666667V138.666667a10.666667 10.666667 0 0 0-10.666667-10.666667z m298.666666 597.286667a53.373333 53.373333 0 0 1-53.333333-53.333334V352.066667A53.333333 53.333333 0 0 1 467.373333 308L702 467.933333a53.333333 53.333333 0 0 1 0 88.133334L467.373333 716a53.286667 53.286667 0 0 1-30.04 9.286667z m0.08-383.933334a11.093333 11.093333 0 0 0-5.08 1.28 10.446667 10.446667 0 0 0-5.666666 9.433334v319.866666a10.666667 10.666667 0 0 0 16.666666 8.82l234.666667-159.94a10.666667 10.666667 0 0 0 0-17.626666l-234.666667-159.933334a10.313333 10.313333 0 0 0-5.906666-1.92z"  /></svg>