<?xml version="1.0" standalone="no"?><!DOCTYPE svg PUBLIC "-//W3C//DTD SVG 1.1//EN" "http://www.w3.org/Graphics/SVG/1.1/DTD/svg11.dtd"><svg class="icon" width="200px" height="200.00px" viewBox="0 0 1024 1024" version="1.1" xmlns="http://www.w3.org/2000/svg"><path fill="#d81e06" d="M915.986171 556.578283L545.524025 925.848303c-45.445283 45.373033-119.212587 45.373033-164.657871 0l-288.133211-287.26621c-45.445283-45.264658-45.445283-118.779087 0-164.152121L463.231214 105.159952c28.285896-29.622522 33.70465-42.627531 63.327172-42.627531h376.3144c29.730897 0 53.826289 24.023143 53.82629 53.645664v375.1584c0 29.550272-16.870387 41.39928-40.712905 65.241798zM133.915473 597.580188l288.133211 287.26621c22.686517 22.686517 59.606294 22.686517 82.29281 0l40.74903-40.640655-369.55902-370.209271-41.616031 41.471531c-22.686517 22.686517-22.686517 59.425669 0 82.112185zM902.872786 142.982855c0-14.847386-11.993509-26.768645-26.877019-26.768645h-322.488112c-14.847386 0-35.944401 16.798137-49.202286 29.983772l-287.69971 286.796585L586.67043 802.734213l288.060961-287.26621c14.486136-14.413886 28.105271-36.125026 28.10527-50.972413v-321.512735h0.036125z m-295.611091 269.890072c-45.445283-45.264658-45.445283-118.742962 0-164.115995 45.445283-45.264658 119.212587-45.264658 164.65787 0 45.445283 45.373033 45.445283 118.851337 0 164.115995-45.445283 45.373033-119.176462 45.373033-164.65787 0z m123.47534-123.11409c-22.686517-22.614267-59.606294-22.614267-82.29281 0-22.758767 22.686517-22.758767 59.425669 0 82.112185 22.686517 22.686517 59.606294 22.686517 82.29281 0a57.847005 57.847005 0 0 0 0-82.112185z"  /></svg>