<?xml version="1.0" standalone="no"?><!DOCTYPE svg PUBLIC "-//W3C//DTD SVG 1.1//EN" "http://www.w3.org/Graphics/SVG/1.1/DTD/svg11.dtd"><svg class="icon" width="200px" height="183.18px" viewBox="0 0 1118 1024" version="1.1" xmlns="http://www.w3.org/2000/svg"><path d="M0 0m74.640492 0l951.666272 0q74.640492 0 74.640492 74.640492l0 858.365657q0 74.640492-74.640492 74.640492l-951.666272 0q-74.640492 0-74.640492-74.640492l0-858.365657q0-74.640492 74.640492-74.640492Z" fill="#AFE1FA" /><path d="M620.449089 482.830682H886.355842a74.640492 74.640492 0 0 1 74.640492 74.640492v0.839706H545.808597v-0.839706a74.640492 74.640492 0 0 1 74.640492-74.640492zM620.449089 709.084674H886.355842a74.640492 74.640492 0 0 1 74.640492 74.640492H545.808597a74.640492 74.640492 0 0 1 74.640492-74.640492zM828.042958 257.043194H886.355842a74.640492 74.640492 0 0 1 74.640492 74.640492v0.839706H753.402466v-0.839706a74.640492 74.640492 0 0 1 74.640492-74.640492zM643.774243 214.591414H326.552152v330.004275a130.620861 130.620861 0 1 0-37.320246 247.24663A132.393573 132.393573 0 0 0 401.192644 659.635348V363.872398h242.581599z" fill="#F5834A" /></svg>