<?xml version="1.0" standalone="no"?><!DOCTYPE svg PUBLIC "-//W3C//DTD SVG 1.1//EN" "http://www.w3.org/Graphics/SVG/1.1/DTD/svg11.dtd"><svg class="icon" width="200px" height="200.00px" viewBox="0 0 1024 1024" version="1.1" xmlns="http://www.w3.org/2000/svg"><path d="M912 448v64H112V448z" fill="#397AFF" /><path d="M840 224H185.024c-39.808 0-72 32.256-72 72v544c0 39.744 32.192 72 72 72h654.976c39.744 0 72-32.256 72-72v-544c0-39.744-32.256-72-72-72z m-654.976 64h654.976c4.416 0 8 3.584 8 8v544a8 8 0 0 1-8 8H185.024a8 8 0 0 1-8-8v-544c0-4.416 3.584-8 8-8z" fill="#3F454B" /><path d="M288 112h64V352h-64zM673.984 112h64V352h-64z" fill="#397AFF" /></svg>