<?xml version="1.0" standalone="no"?><!DOCTYPE svg PUBLIC "-//W3C//DTD SVG 1.1//EN" "http://www.w3.org/Graphics/SVG/1.1/DTD/svg11.dtd"><svg class="icon" width="200px" height="200.00px" viewBox="0 0 1024 1024" version="1.1" xmlns="http://www.w3.org/2000/svg"><path fill="#d81e06" d="M897.2 148.2c5.4 0 10 4.6 10 10v710c0 5.4-4.6 10-10 10H126.8c-5.4 0-10-4.6-10-10v-710c0-5.4 4.6-10 10-10h770.4m0-50H126.8c-33 0-60 27-60 60v710c0 33 27 60 60 60h770.4c33 0 60-27 60-60v-710c0-33-27-60-60-60zM250 513.2h80v234h-80zM472 274.4h80v472.8h-80zM704 383.8h80v363.5h-80z" /></svg>