<?xml version="1.0" standalone="no"?><!DOCTYPE svg PUBLIC "-//W3C//DTD SVG 1.1//EN" "http://www.w3.org/Graphics/SVG/1.1/DTD/svg11.dtd"><svg class="icon" width="200px" height="181.88px" viewBox="0 0 1126 1024" version="1.1" xmlns="http://www.w3.org/2000/svg"><path fill="#d81e06" d="M742.4 0h-358.4C199.68 0 51.2 148.48 51.2 332.8v358.4C51.2 875.52 199.68 1024 384 1024h358.4C926.72 1024 1075.2 875.52 1075.2 691.2v-358.4C1075.2 148.48 926.72 0 742.4 0zM904.533333 471.04c-3.413333 22.186667-13.653333 42.666667-29.013333 59.733333l-81.92 81.92 18.773333 114.346667c10.24 56.32-27.306667 109.226667-83.626666 119.466667-22.186667 3.413333-44.373333 0-64.853334-10.24l-102.4-54.613334L460.8 836.266667c-49.493333 27.306667-110.933333 6.826667-136.533333-42.666667-10.24-20.48-13.653333-42.666667-10.24-64.853333l18.773333-114.346667-81.92-81.92c-40.96-39.253333-40.96-105.813333-1.706667-146.773333 15.36-15.36 35.84-27.306667 58.026667-30.72l114.346667-17.066667 51.2-104.106667c25.6-51.2 85.333333-71.68 136.533333-46.08 20.48 10.24 35.84 27.306667 46.08 46.08l51.2 104.106667 114.346667 17.066667c52.906667 8.533333 92.16 59.733333 83.626666 116.053333z"  /><path fill="#d81e06" d="M810.666667 406.186667l-119.466667-17.066667c-13.653333-1.706667-25.6-10.24-30.72-22.186667L607.573333 256c-5.12-10.24-13.653333-18.773333-22.186666-23.893333-23.893333-11.946667-54.613333-1.706667-66.56 23.893333l-52.906667 109.226667c-5.12 11.946667-17.066667 20.48-30.72 22.186666l-119.466667 17.066667c-10.24 1.706667-20.48 6.826667-29.013333 15.36-20.48 20.48-18.773333 52.906667 1.706667 73.386667l85.333333 85.333333c10.24 10.24 13.653333 22.186667 11.946667 35.84l-20.48 119.466667c-1.706667 11.946667 0 22.186667 5.12 32.426666 13.653333 25.6 42.666667 34.133333 68.266666 22.186667l105.813334-56.32c11.946667-6.826667 27.306667-6.826667 39.253333 0l105.813333 56.32c10.24 5.12 20.48 6.826667 30.72 5.12 27.306667-5.12 46.08-30.72 40.96-59.733333l-20.48-119.466667c-1.706667-13.653333 1.706667-27.306667 11.946667-35.84l85.333333-85.333333c8.533333-8.533333 13.653333-18.773333 15.36-29.013334 5.12-27.306667-13.653333-54.613333-42.666666-58.026666z"  /></svg>