<?xml version="1.0" standalone="no"?><!DOCTYPE svg PUBLIC "-//W3C//DTD SVG 1.1//EN" "http://www.w3.org/Graphics/SVG/1.1/DTD/svg11.dtd"><svg class="icon" width="200px" height="200.00px" viewBox="0 0 1024 1024" version="1.1" xmlns="http://www.w3.org/2000/svg"><path fill="#d81e06" d="M404.02944 93.53216c27.136 28.0576 28.09856 72.0896 2.62144 100.864l-2.92864 3.13344-84.82816 85.21728h560.5376c37.82656 0 69.36576 29.4912 72.62208 65.9456l0.22528 3.80928 0.04096 526.2336a73.6256 73.6256 0 0 1-69.46816 73.48224l-3.8912 0.1024H145.01888a73.60512 73.60512 0 0 1-73.25696-69.67296l-0.1024-3.8912V377.50784c0.14336-33.93536 6.36928-61.5424 28.61056-83.72224l2.58048-2.4576 196.95616-198.41024a73.8304 73.8304 0 0 1 104.20224 0.6144zM344.7808 135.168l-1.67936 1.37216-196.62848 198.10304-1.26976 1.2288c-7.80288 6.98368-11.42784 20.04992-12.00128 37.35552l-0.08192 4.42368v501.08416c0 6.00064 4.44416 11.03872 10.0352 11.9808l1.88416 0.16384h733.9008a12.14464 12.14464 0 0 0 11.776-10.19904l0.16384-1.9456V355.7376a11.81696 11.81696 0 0 0-9.6256-11.3664l-1.8432-0.14336H245.02272c-26.37824 0-40.07936-30.78144-23.6544-50.33984l1.88416-2.048 136.92928-137.6256a12.75904 12.75904 0 0 0 0-17.6128 12.20608 12.20608 0 0 0-15.38048-1.41312z m-16.384 345.21088c78.1312 0 141.59872 63.7952 141.59872 142.15168 0 78.70464-63.32416 142.17216-141.59872 142.17216-78.21312 0-141.57824-63.8976-141.57824-142.6432 0-77.96736 63.54944-141.68064 141.57824-141.68064z m461.0048 210.7392c14.21312 0 25.6 11.42784 25.6 25.7024 0 14.29504-11.38688 25.72288-25.6 25.72288h-222.208c-14.21312 0-25.6-11.42784-25.6-25.72288 0-14.27456 11.38688-25.7024 25.6-25.7024h222.208z m-461.0048-149.2992a80.4864 80.4864 0 0 0-80.13824 80.24064c0 44.93312 35.96288 81.2032 80.13824 81.2032 44.29824 0 80.15872-35.92192 80.15872-80.73216 0-44.48256-36.0448-80.6912-80.15872-80.6912z m461.0048-24.9856c14.21312 0 25.6 11.8784 25.6 25.7024 0 14.29504-11.38688 25.72288-25.6 25.72288h-222.208c-14.21312 0-25.6-11.42784-25.6-25.72288s11.38688-25.72288 25.6-25.72288h222.208z"  /></svg>